<?xml version="1.0" standalone="no"?>
<!DOCTYPE svg PUBLIC "-//W3C//DTD SVG 20010904//EN"
 "http://www.w3.org/TR/2001/REC-SVG-20010904/DTD/svg10.dtd">
<svg version="1.0" xmlns="http://www.w3.org/2000/svg"
 width="512.000000pt" height="512.000000pt" viewBox="0 0 512.000000 512.000000"
 preserveAspectRatio="xMidYMid meet">
<metadata>
Created by potrace 1.14, written by Peter Selinger 2001-2017
</metadata>
<g transform="translate(0.000000,512.000000) scale(0.100000,-0.100000)"
fill="#000000" stroke="none">
<path d="M3150 4606 c-322 -90 -1041 -290 -1599 -444 -739 -205 -1023 -288
-1051 -306 -120 -79 -129 -268 -18 -361 46 -39 89 -55 148 -55 l50 0 0 -55 c0
-54 -1 -55 -29 -55 -89 0 -223 -72 -281 -151 -60 -83 -70 -131 -70 -329 l0
-180 -75 0 -75 0 0 108 c0 126 -9 142 -77 142 -78 0 -73 53 -73 -762 0 -690 1
-726 18 -741 26 -23 94 -22 115 1 13 14 17 39 17 105 l0 87 75 0 75 0 0 -175
0 -175 -83 0 c-103 0 -160 -25 -194 -86 -20 -33 -23 -54 -23 -144 0 -127 19
-170 89 -207 43 -23 49 -23 352 -23 l308 0 11 -42 c40 -155 132 -273 267 -346
293 -156 662 -1 756 316 l21 72 531 0 532 0 21 23 c32 34 30 89 -4 116 -26 21
-36 21 -553 21 l-527 0 -21 70 -20 70 798 0 c440 0 799 -2 799 -5 0 -2 -4 -14
-10 -27 -5 -13 -14 -42 -20 -65 l-11 -43 -78 0 c-99 0 -131 -20 -131 -80 0
-63 26 -80 127 -80 l82 0 11 -42 c40 -155 132 -273 267 -346 293 -156 662 -1
756 315 l21 73 305 0 c288 0 307 1 348 21 73 35 87 66 91 196 4 132 -9 170
-71 211 -35 23 -53 27 -134 30 l-93 4 0 281 c0 255 -2 286 -19 324 -34 75 -84
113 -238 182 -115 51 -143 68 -152 90 -5 14 -64 241 -131 505 -66 263 -129
495 -140 515 -27 52 -97 117 -155 142 -34 15 -77 24 -132 27 l-83 5 0 116 0
116 50 23 c36 17 56 34 75 66 23 39 25 52 25 166 0 114 -2 127 -25 166 -19 32
-39 49 -75 66 l-50 23 0 111 0 112 50 12 c119 28 190 117 190 234 0 125 -87
215 -213 222 -55 3 -127 -15 -647 -160z m679 -20 c29 -30 25 -73 -9 -97 -14
-10 -529 -158 -1150 -329 -619 -171 -1271 -352 -1450 -401 -179 -50 -383 -106
-453 -125 -76 -21 -138 -33 -153 -30 -49 13 -67 84 -29 116 7 6 615 177 1351
381 737 203 1449 401 1584 439 135 38 254 69 266 69 11 1 31 -10 43 -23z
m-209 -796 l0 -460 -1395 0 -1396 0 3 77 3 78 1375 381 c756 210 1383 382
1393 383 16 1 17 -27 17 -459z m293 -634 c18 -7 46 -29 63 -48 28 -32 41 -77
153 -524 67 -269 131 -508 142 -531 27 -57 57 -77 217 -148 117 -51 139 -65
156 -95 20 -34 21 -52 24 -442 l3 -408 -149 0 -148 0 -21 72 c-105 356 -537
492 -836 264 l-47 -36 -911 0 -911 0 -41 34 c-198 160 -496 151 -687 -21 -78
-70 -132 -161 -160 -270 l-11 -43 -149 0 -150 0 0 984 c0 618 4 1003 10 1037
14 75 53 128 119 162 l55 27 1623 0 c1341 0 1629 -2 1656 -14z m-3613 -791 l0
-145 -75 0 -75 0 0 145 0 145 75 0 75 0 0 -145z m0 -450 l0 -145 -75 0 -75 0
0 145 0 145 75 0 75 0 0 -145z m1124 -698 c110 -51 196 -163 214 -280 25 -161
-64 -324 -216 -395 -49 -23 -70 -27 -147 -27 -77 1 -98 4 -146 28 -84 41 -143
98 -181 175 -79 160 -33 352 109 457 106 78 252 94 367 42z m2570 0 c110 -51
196 -163 214 -280 25 -161 -64 -324 -216 -395 -49 -23 -70 -27 -147 -27 -77 1
-98 4 -146 28 -84 41 -143 98 -181 175 -79 160 -33 352 109 457 106 78 252 94
367 42z m-3694 -187 l0 -70 -63 0 c-36 0 -68 5 -75 12 -16 16 -16 100 0 116 7
7 39 12 75 12 l63 0 0 -70z m4664 54 c3 -9 6 -33 6 -54 0 -66 -4 -70 -81 -70
l-69 0 0 70 0 70 69 0 c54 0 70 -4 75 -16z"/>
<path d="M664 3014 c-64 -31 -64 -30 -64 -469 0 -356 2 -400 17 -426 31 -53
61 -59 273 -59 285 0 290 4 290 232 0 166 -5 178 -77 178 -64 0 -73 -18 -73
-143 l0 -107 -140 0 -140 0 0 325 0 325 140 0 140 0 0 -83 c0 -98 12 -117 77
-117 65 0 73 17 73 154 0 198 -12 206 -292 206 -151 0 -200 -4 -224 -16z"/>
<path d="M1394 3014 c-64 -31 -64 -30 -64 -469 0 -440 0 -438 66 -470 47 -22
611 -22 658 0 66 32 66 30 66 470 0 440 0 438 -66 470 -47 22 -614 22 -660 -1z
m576 -469 l0 -325 -245 0 -245 0 0 325 0 325 245 0 245 0 0 -325z"/>
<path d="M2334 3014 c-64 -31 -64 -30 -64 -469 0 -440 0 -438 66 -470 47 -22
611 -22 658 0 66 32 66 30 66 470 0 440 0 438 -66 470 -47 22 -614 22 -660 -1z
m576 -469 l0 -325 -245 0 -245 0 0 325 0 325 245 0 245 0 0 -325z"/>
<path d="M3274 3014 c-64 -31 -64 -30 -64 -469 0 -440 0 -438 66 -470 48 -23
691 -22 735 0 36 19 69 70 69 108 0 42 -190 768 -209 796 -30 46 -62 51 -323
51 -196 0 -249 -3 -274 -16z m546 -444 c42 -162 80 -307 84 -322 l6 -28 -275
0 -275 0 0 325 0 325 192 -2 192 -3 76 -295z"/>
<path d="M3225 1895 c-16 -15 -25 -36 -25 -55 0 -19 9 -40 25 -55 23 -24 29
-25 160 -25 131 0 137 1 160 25 16 15 25 36 25 55 0 19 -9 40 -25 55 -23 24
-29 25 -160 25 -131 0 -137 -1 -160 -25z"/>
<path d="M1208 1100 c-139 -42 -202 -208 -128 -337 39 -68 98 -104 183 -110
54 -4 69 -1 117 24 94 49 138 144 119 250 -24 129 -163 212 -291 173z m112
-170 c41 -41 12 -120 -43 -120 -33 0 -67 35 -67 70 0 59 70 90 110 50z"/>
<path d="M3778 1100 c-139 -42 -202 -208 -128 -337 39 -68 98 -104 183 -110
54 -4 69 -1 117 24 94 49 138 144 119 250 -24 129 -163 212 -291 173z m112
-170 c41 -41 12 -120 -43 -120 -58 0 -88 79 -45 120 28 25 62 26 88 0z"/>
</g>
</svg>
